<?xml version="1.0" encoding="UTF-8"?>
<svg id="_圖層_2" data-name="圖層 2" xmlns="http://www.w3.org/2000/svg" viewBox="0 0 646.25 209.15">
  <defs>
    <style>
      .cls-1 {
        fill: #140305;
      }

      .cls-2 {
        fill: #dbdcdc;
      }
    </style>
  </defs>
  <g id="_圖層_1-2" data-name="圖層 1">
    <g>
      <g>
        <path class="cls-2" d="M0,208.82V46h53.5v5.71c10.32-4.55,21.99-7.2,33.44-7.2,37.59,0,63.85,25.58,63.85,62.2,0,19.28-7.03,35.54-20.34,47.02-11.59,10-27.28,15.51-44.16,15.51-11.73,0-22.92-2.78-32.78-7.87v47.45H0ZM77.53,87.63c-7.18,0-23.87,1.62-23.87,16.62,0,11.7,9.63,19.26,24.53,19.26,13.56,0,19.09-5.29,19.09-18.27,0-14.66-7.56-17.61-19.75-17.61Z"/>
        <path class="cls-2" d="M113.27,167.77V46h53.5v6.06c9.31-5.24,20.15-7.88,32.45-7.88,17.71,0,32.25,5.41,42.05,15.64,10.13,10.57,14.85,25.56,14.04,44.54l-.59,13.67-51.25.37v-14.48c0-8.01-1.41-10.15-1.69-10.5-.3-.37-2.18-1.34-7.18-1.34-20.58,0-27.83,16.4-27.83,19.92v55.77h-53.5Z"/>
        <path class="cls-2" d="M279.85,170.24c-42.42,0-74.4-27.02-74.4-62.86,0-19.28,9.09-36.35,25.6-48.06,13.54-9.61,31.63-15.12,49.63-15.12s34.97,5.23,48.02,14.73c15.84,11.54,24.57,28.75,24.57,48.46s-8.37,35.62-23.56,47.18c-13.28,10.11-30.98,15.68-49.85,15.68ZM280.01,87.13c-8.54,0-21.24,5.3-21.24,19.92,0,12.5,8.53,21.23,20.74,21.23s20.25-8.53,20.25-21.23c0-4.67-1.42-19.92-19.75-19.92Z"/>
        <path class="cls-2" d="M293.82,209.15v-48.71h14.38c7.26,0,11.42-.24,13.78-.53.02-.6.04-1.34.04-2.24V46h1.06c-3.41-4.7-5.35-10.55-5.35-17.11,0-16.74,12.64-28.89,30.05-28.89s30.05,12.15,30.05,28.89c0,6.56-1.94,12.42-5.35,17.11h2.71v113.32c0,46.26-27.76,49.83-66.98,49.83h-14.38Z"/>
        <path class="cls-2" d="M411.42,170.07c-42.35,0-71.93-25.78-71.93-62.7s29.17-63.19,70.94-63.19c20.78,0,38.19,6.6,50.34,19.08,10.72,11.01,16.4,25.75,16.5,42.75h9.41l-4.22,17.71c-6.7,28.15-34.59,46.34-71.04,46.34ZM397.45,122.59c2.87,2.36,7.4,4.05,14.47,4.05s12.05-1.76,15.54-4.05h-30.01Z"/>
        <path class="cls-2" d="M510.84,170.07c-18.72,0-36.08-5.48-48.88-15.44-14.65-11.4-22.72-28.18-22.72-47.26s8.68-37.2,24.44-48.65c12.9-9.37,29.94-14.54,47.99-14.54,31.74,0,67.1,16.98,69.75,54.25l.14,1.97h5.8l-2.43,16.48c-2.45,16.61-12.26,31.04-27.64,40.63-12.97,8.09-29.47,12.55-46.44,12.55ZM510.51,87.3c-20.08,0-20.08,15.11-20.08,20.08,0,9.2,2.28,19.75,20.08,19.75,11.81,0,21.42-5.67,22.72-13.28h-3.16l-.3-14.08c-.2-9.2-10.08-12.47-19.26-12.47Z"/>
        <path class="cls-2" d="M607.14,167.6c-34.58,0-56.92-21.31-56.92-54.28,0-7.61,1.11-14.57,3.23-20.74h-16.28l-.43-46.57h26.02v-18.9l51.63-12.35-.19,31.24h32.07v46.57h-39.78c-1.24,0-4.19.1-4.84,1.08-.62.93-2.05,4.1-2.05,13.4,0,13.32,2.37,13.32,8.7,13.32h37.79v47.23h-38.95Z"/>
      </g>
      <g>
        <path class="cls-1" d="M36.48,124.69h-5.11l7.75,16.65v53.09H14.38V60.39h24.73v10.72l-7.42,11.05h5.61c7.91-12.7,28.69-23.25,49.63-23.25,25.89,0,49.47,15.99,49.47,47.82s-24.24,48.15-50.13,48.15c-23.74,0-41.55-13.69-49.8-30.18ZM39.28,104.25c0,17.64,13.52,33.64,38.91,33.64,23.09,0,33.47-13.19,33.47-32.65s-11.05-31.99-34.13-31.99-38.25,12.37-38.25,31Z"/>
        <path class="cls-1" d="M240.93,103.75l-23.08.16c0-17.15-5.28-26.22-23.25-26.22-28.53,0-42.21,22.75-42.21,34.3v41.39h-24.73V60.39h24.73v15l-3.63,10.06h5.61c10.55-19.46,25.56-26.88,44.85-26.88,22.92,0,43.2,10.55,41.72,45.18Z"/>
        <path class="cls-1" d="M338.88,107.38c0,30.67-28.03,48.48-59.03,48.48s-60.02-18.47-60.02-48.48c0-31.82,31.82-48.81,60.85-48.81s58.21,15.66,58.21,48.81ZM279.52,142.67c20.45,0,34.63-15.34,34.63-35.62,0-18.8-12.37-34.3-34.13-34.3-23.74,0-35.62,18.3-35.62,34.3,0,20.12,14.51,35.62,35.12,35.62Z"/>
        <path class="cls-1" d="M360.8,60.39v98.93c0,30.5-11.05,35.45-52.6,35.45v-19.95c24.73,0,28.2-2.14,28.2-17.15V60.39h24.4ZM347.78,14.38c9.4,0,15.66,5.77,15.66,14.51s-6.27,14.51-15.66,14.51-15.66-5.77-15.66-14.51,6.27-14.51,15.66-14.51Z"/>
        <path class="cls-1" d="M378.28,108.2v3.96c.33,18.3,14.51,28.86,33.64,28.86,13.36,0,30.18-5.77,34.79-20.61h21.77c-5.77,24.24-31.33,35.29-57.05,35.29-31.49,0-57.55-16.82-57.55-48.31s27.04-48.81,56.56-48.81c31.99,0,53.26,18.8,52.44,49.63h-84.59ZM438.79,98.64c-.49-15.17-9.56-25.72-28.53-25.72-20.61,0-28.53,12.2-31,25.72h59.53Z"/>
        <path class="cls-1" d="M570.7,114.8c-3.96,26.88-32.15,40.89-59.86,40.89-30.5,0-57.22-16.98-57.22-48.31,0-33.64,30.01-48.81,58.04-48.81,26.22,0,53.42,13.03,55.4,40.89h-22.92c-.33-15.5-13.52-26.55-33.64-26.55-24.07,0-34.46,15.99-34.46,34.46,0,23.74,14.84,34.13,34.46,34.13s35.45-11.71,37.1-26.71h23.08Z"/>
        <path class="cls-1" d="M599.72,60.39h32.15v17.81h-25.39c-16.49,0-21.27,10.39-21.27,28.86,0,16.65,4.78,27.7,23.09,27.7h23.41v18.47h-24.57c-27.37,0-42.54-15.17-42.54-39.9,0-18.47,7.75-33.14,26.71-36.44v-5.44l-17.64,6.76h-22.26l-.16-17.81h25.89v-21.93l22.75-5.44-.16,27.37Z"/>
      </g>
    </g>
  </g>
</svg>