<?xml version="1.0" encoding="UTF-8"?>
<svg id="_圖層_2" data-name="圖層 2" xmlns="http://www.w3.org/2000/svg" viewBox="0 0 687.97 155.48">
  <defs>
    <style>
      .cls-1 {
        fill: #140305;
      }

      .cls-2 {
        fill: #dbdcdc;
      }
    </style>
  </defs>
  <g id="_圖層_1-2" data-name="圖層 1">
    <g>
      <g>
        <path class="cls-2" d="M71.6,155.31c-18.72,0-36.08-5.48-48.88-15.44C8.07,128.47,0,111.69,0,92.62s8.68-37.2,24.44-48.65c12.9-9.37,29.94-14.54,47.99-14.54,31.74,0,67.1,16.98,69.75,54.26l.14,1.97h5.8l-2.43,16.48c-2.45,16.61-12.26,31.04-27.64,40.63-12.97,8.09-29.47,12.55-46.44,12.55ZM71.27,72.54c-4.97,0-20.08,0-20.08,20.08,0,9.2,2.28,19.75,20.08,19.75,11.81,0,21.42-5.67,22.72-13.29h-3.16l-.3-14.08c-.2-9.2-10.08-12.47-19.26-12.47Z"/>
        <path class="cls-2" d="M174.98,155.48c-42.42,0-74.4-27.02-74.4-62.86,0-19.28,9.09-36.35,25.59-48.06,13.54-9.61,31.63-15.12,49.63-15.12s34.97,5.23,48.02,14.73c15.84,11.54,24.57,28.75,24.57,48.46s-8.37,35.62-23.56,47.18c-13.28,10.11-30.98,15.68-49.85,15.68ZM175.14,72.37c-8.54,0-21.24,5.3-21.24,19.92,0,12.5,8.53,21.24,20.74,21.24s20.25-8.53,20.25-21.24c0-4.67-1.42-19.92-19.75-19.92Z"/>
        <path class="cls-2" d="M299.27,153v-61.21c0-13.83-3.55-14.47-10.35-14.47-17.38,0-25.19,15.83-25.19,19.92v55.77h-53.5V31.24h53.5v5.98c9.35-5.22,20.29-7.79,32.94-7.79,35.44,0,55.77,20.87,55.77,57.25v66.32h-53.17Z"/>
        <path class="cls-2" d="M377.78,152.84c-34.58,0-56.92-21.31-56.92-54.28,0-7.61,1.11-14.57,3.23-20.74h-16.28l-.43-46.57h26.02V12.35L385.02,0l-.19,31.24h32.07v46.57h-39.77c-1.24,0-4.19.11-4.84,1.08-.62.93-2.05,4.1-2.05,13.4,0,13.32,2.37,13.32,8.7,13.32h37.8v47.23h-38.95Z"/>
        <path class="cls-2" d="M426.75,154.49c-31.04,0-54.45-19.51-54.45-45.38,0-13.1,5.85-23.94,15.99-31.29h-5.64l-.43-46.57h71.57c39.63,0,59.73,19.43,59.73,57.75v16.78h16.32v47.23h-57.78v-3.33c-2.6-1.64-4.92-3.87-6.73-6.62-10.91,7.4-24.13,11.44-38.58,11.44ZM426.69,109.56c1.61.89,4.8,1.99,9.46,1.99,3.11,0,5.84-.53,8.21-1.38-3.49-1.1-7.03-1.85-10.19-1.85-2.99,0-5.8.6-7.48,1.24Z"/>
        <path class="cls-2" d="M552.56,155.31c-18.72,0-36.08-5.48-48.88-15.44-14.65-11.4-22.72-28.18-22.72-47.26s8.68-37.2,24.44-48.65c12.9-9.37,29.94-14.54,47.99-14.54,31.74,0,67.1,16.98,69.75,54.26l.14,1.97h5.79l-2.43,16.48c-2.45,16.61-12.26,31.04-27.64,40.63-12.97,8.09-29.47,12.55-46.44,12.55ZM552.23,72.54c-4.97,0-20.08,0-20.08,20.08,0,9.2,2.28,19.75,20.08,19.75,11.81,0,21.42-5.67,22.72-13.29h-3.16l-.3-14.08c-.2-9.2-10.08-12.47-19.26-12.47Z"/>
        <path class="cls-2" d="M648.85,152.84c-34.58,0-56.92-21.31-56.92-54.28,0-7.61,1.11-14.57,3.23-20.74h-16.28l-.43-46.57h26.02V12.35l51.63-12.35-.19,31.24h32.07v46.57h-39.77c-1.24,0-4.19.11-4.84,1.08-.62.93-2.05,4.1-2.05,13.4,0,13.32,2.37,13.32,8.7,13.32h37.8v47.23h-38.95Z"/>
      </g>
      <g>
        <path class="cls-1" d="M131.45,100.04c-3.96,26.88-32.15,40.89-59.86,40.89-30.5,0-57.22-16.98-57.22-48.31,0-33.64,30.01-48.81,58.04-48.81,26.22,0,53.42,13.03,55.4,40.89h-22.92c-.33-15.5-13.52-26.55-33.64-26.55-24.07,0-34.46,15.99-34.46,34.46,0,23.74,14.84,34.13,34.46,34.13s35.45-11.71,37.1-26.71h23.08Z"/>
        <path class="cls-1" d="M234.01,92.62c0,30.67-28.03,48.48-59.03,48.48s-60.02-18.47-60.02-48.48c0-31.82,31.82-48.81,60.84-48.81s58.21,15.66,58.21,48.81ZM174.65,127.9c20.45,0,34.63-15.33,34.63-35.62,0-18.8-12.37-34.3-34.13-34.3-23.74,0-35.62,18.3-35.62,34.3,0,20.12,14.51,35.62,35.12,35.62Z"/>
        <path class="cls-1" d="M338.05,86.68v51.94h-24.4v-46.83c0-11.05-1.81-28.86-24.73-28.86-25.89,0-39.57,22.75-39.57,34.3v41.39h-24.73V45.62h24.73v15.01l-3.63,10.06h5.61c10.55-19.46,25.56-26.88,45.35-26.88,21.6,0,41.39,9.07,41.39,42.87Z"/>
        <path class="cls-1" d="M370.36,45.62h32.15v17.81h-25.39c-16.49,0-21.27,10.39-21.27,28.86,0,16.65,4.78,27.7,23.08,27.7h23.41v18.47h-24.57c-27.37,0-42.54-15.17-42.54-39.9,0-18.47,7.75-33.14,26.71-36.44v-5.44l-17.64,6.76h-22.26l-.16-17.81h25.89v-21.93l22.76-5.44-.17,27.37Z"/>
        <path class="cls-1" d="M425.27,81.73c21.6,0,37.93,9.73,49.14,17.15.16-2.97,0-9.56,0-12.2,0-16.49-8.08-23.25-29.35-23.25h-48.15l-.16-17.81h57.05c31.33,0,45.35,13.03,45.35,43.37v31.16h16.32v18.47h-29.02v-.16l-3.13.16c-5.28,0-7.59-5.77-7.59-9.56,0-5.28,3.13-15.01,4.78-17.48l-4.95-2.64c-11.05,24.73-33.31,31.16-48.81,31.16-20.28,0-40.07-11.21-40.07-31s18.47-27.37,38.58-27.37ZM436.15,125.93c23.58,0,33.64-19.62,33.64-19.62,0,0-18.96-12.37-35.62-12.37-7.09,0-22.76,2.31-22.76,15.5,0,10.88,12.2,16.49,24.73,16.49Z"/>
        <path class="cls-1" d="M612.42,100.04c-3.96,26.88-32.15,40.89-59.85,40.89-30.5,0-57.22-16.98-57.22-48.31,0-33.64,30.01-48.81,58.04-48.81,26.22,0,53.42,13.03,55.4,40.89h-22.92c-.33-15.5-13.52-26.55-33.64-26.55-24.07,0-34.46,15.99-34.46,34.46,0,23.74,14.84,34.13,34.46,34.13s35.45-11.71,37.1-26.71h23.08Z"/>
        <path class="cls-1" d="M641.43,45.62h32.15v17.81h-25.39c-16.49,0-21.27,10.39-21.27,28.86,0,16.65,4.78,27.7,23.08,27.7h23.41v18.47h-24.57c-27.37,0-42.54-15.17-42.54-39.9,0-18.47,7.75-33.14,26.71-36.44v-5.44l-17.64,6.76h-22.26l-.16-17.81h25.89v-21.93l22.76-5.44-.16,27.37Z"/>
      </g>
    </g>
  </g>
</svg>