<?xml version="1.0" encoding="UTF-8"?>
<svg id="_圖層_2" data-name="圖層 2" xmlns="http://www.w3.org/2000/svg" viewBox="0 0 618.63 194.06">
  <defs>
    <style>
      .cls-1 {
        fill: #140305;
      }

      .cls-2 {
        fill: #dbdcdc;
      }
    </style>
  </defs>
  <g id="_圖層_1-2" data-name="圖層 1">
    <g>
      <g>
        <path class="cls-2" d="M0,194.06V31.24h53.5v5.72c10.32-4.55,21.99-7.2,33.44-7.2,37.59,0,63.85,25.58,63.85,62.2,0,19.28-7.03,35.54-20.34,47.02-11.59,10-27.28,15.51-44.16,15.51-11.73,0-22.92-2.78-32.78-7.87v47.44H0ZM77.53,72.87c-7.18,0-23.87,1.62-23.87,16.62,0,11.7,9.63,19.26,24.53,19.26,13.56,0,19.09-5.29,19.09-18.27,0-14.66-7.56-17.61-19.75-17.61Z"/>
        <path class="cls-2" d="M182.4,155.48c-42.42,0-74.4-27.02-74.4-62.86,0-19.28,9.09-36.35,25.59-48.06,13.54-9.61,31.63-15.12,49.63-15.12s34.97,5.23,48.02,14.73c15.84,11.54,24.57,28.75,24.57,48.46s-8.37,35.61-23.56,47.18c-13.28,10.11-30.98,15.68-49.85,15.68ZM182.56,72.37c-8.54,0-21.24,5.3-21.24,19.92,0,12.5,8.53,21.24,20.74,21.24s20.25-8.53,20.25-21.24c0-4.67-1.42-19.92-19.75-19.92Z"/>
        <path class="cls-2" d="M281.99,155.15c-23.17,0-41.16-4.96-53.47-14.75-10.37-8.24-16.31-19.83-16.31-31.79v-14.38h13.59c-5.65-7.52-6.83-15.81-6.83-21.4,0-14.26,7.31-26.27,20.59-33.82,11.2-6.36,26.64-9.59,45.89-9.59,41.42,0,67.15,18.46,67.15,48.18v14.38h-6.29c5.05,7.07,6.12,14.71,6.12,19.92,0,13-6.86,43.24-70.44,43.24Z"/>
        <path class="cls-2" d="M376.14,152.84c-34.58,0-56.92-21.31-56.92-54.28,0-7.61,1.11-14.57,3.23-20.74h-16.28l-.43-46.57h26.02V12.35L383.37,0l-.19,31.24h32.07v46.57h-39.77c-1.24,0-4.19.11-4.84,1.08-.62.93-2.05,4.1-2.05,13.4,0,13.32,2.37,13.32,8.7,13.32h37.8v47.23h-38.95Z"/>
        <path class="cls-2" d="M443.41,155.31c-42.35,0-71.93-25.78-71.93-62.69s29.17-63.19,70.94-63.19c20.78,0,38.19,6.6,50.34,19.08,10.72,11.01,16.4,25.75,16.5,42.75h9.41l-4.22,17.71c-6.7,28.15-34.59,46.34-71.04,46.34ZM429.44,107.82c2.87,2.36,7.4,4.05,14.47,4.05s12.05-1.76,15.54-4.05h-30.01Z"/>
        <path class="cls-2" d="M476.51,153V31.24h53.5v6.06c9.31-5.24,20.15-7.88,32.45-7.88,17.71,0,32.25,5.41,42.05,15.64,10.13,10.57,14.85,25.56,14.04,44.54l-.59,13.67-51.25.37v-14.48c0-8.01-1.41-10.15-1.69-10.5-.3-.37-2.18-1.34-7.18-1.34-20.58,0-27.83,16.4-27.83,19.92v55.77h-53.5Z"/>
      </g>
      <g>
        <path class="cls-1" d="M36.48,109.93h-5.11l7.75,16.65v53.09H14.38V45.62h24.73v10.72l-7.42,11.05h5.61c7.91-12.7,28.69-23.25,49.63-23.25,25.89,0,49.47,15.99,49.47,47.82s-24.24,48.15-50.13,48.15c-23.74,0-41.55-13.69-49.8-30.18ZM39.28,89.48c0,17.64,13.52,33.64,38.91,33.64,23.09,0,33.47-13.19,33.47-32.65s-11.05-31.99-34.13-31.99-38.25,12.37-38.25,31Z"/>
        <path class="cls-1" d="M241.43,92.62c0,30.67-28.03,48.48-59.03,48.48s-60.02-18.47-60.02-48.48c0-31.82,31.82-48.81,60.84-48.81s58.21,15.66,58.21,48.81ZM182.07,127.9c20.45,0,34.63-15.34,34.63-35.62,0-18.8-12.37-34.3-34.13-34.3-23.74,0-35.62,18.3-35.62,34.3,0,20.12,14.51,35.62,35.12,35.62Z"/>
        <path class="cls-1" d="M338.05,111.91c0,18.63-20.28,28.86-56.06,28.86-44.85,0-55.4-20.28-55.4-32.15h23.74c.99,11.87,16.49,16.98,32.48,16.98,24.9,0,33.64-4.12,33.64-13.69,0-24.08-83.11,1.32-83.11-39.08,0-18.14,18.14-29.02,52.11-29.02,28.53,0,52.77,9.56,52.77,33.8h-22.43c-1.32-13.03-12.53-18.47-30.34-18.47s-28.53,3.63-28.53,14.68c0,23.74,81.13-.16,81.13,38.09Z"/>
        <path class="cls-1" d="M368.72,45.62h32.15v17.81h-25.39c-16.49,0-21.27,10.39-21.27,28.86,0,16.65,4.78,27.7,23.08,27.7h23.41v18.47h-24.57c-27.37,0-42.54-15.17-42.54-39.9,0-18.47,7.75-33.14,26.71-36.44v-5.44l-17.64,6.76h-22.26l-.16-17.81h25.89v-21.93l22.76-5.44-.16,27.37Z"/>
        <path class="cls-1" d="M410.27,93.44v3.96c.33,18.3,14.51,28.86,33.64,28.86,13.36,0,30.18-5.77,34.79-20.61h21.77c-5.77,24.24-31.33,35.29-57.05,35.29-31.49,0-57.55-16.82-57.55-48.31s27.04-48.81,56.56-48.81c31.99,0,53.26,18.8,52.43,49.63h-84.59ZM470.78,83.88c-.49-15.17-9.56-25.72-28.53-25.72-20.61,0-28.53,12.2-31,25.72h59.53Z"/>
        <path class="cls-1" d="M604.17,88.99l-23.09.16c0-17.15-5.28-26.22-23.25-26.22-28.53,0-42.21,22.75-42.21,34.3v41.39h-24.73V45.62h24.73v15.01l-3.63,10.06h5.61c10.55-19.46,25.56-26.88,44.85-26.88,22.92,0,43.2,10.55,41.72,45.18Z"/>
      </g>
    </g>
  </g>
</svg>