<?xml version="1.0" encoding="UTF-8"?>
<svg id="_圖層_2" data-name="圖層 2" xmlns="http://www.w3.org/2000/svg" viewBox="0 0 984.27 167.6">
  <defs>
    <style>
      .cls-1 {
        fill: #140305;
      }

      .cls-2 {
        fill: #dbdcdc;
      }
    </style>
  </defs>
  <g id="_圖層_1-2" data-name="圖層 1">
    <g>
      <g>
        <path class="cls-2" d="M0,164.96v-47.23h28.2v-27.8H0v-46.57h27.19c-2.32-4.19-3.61-9.1-3.61-14.48C23.58,12.15,36.22,0,53.63,0s30.05,12.15,30.05,28.89c0,9.53-4.05,17.58-10.72,22.77,5.62,5.49,8.74,13.49,8.74,23.4v42.67h27.87v47.23H0Z"/>
        <path class="cls-2" d="M111.66,164.96c-20.37,0-35.16-14.79-35.16-35.16V62.37l-16.98.16V15.83h70.64v101.57h22.26v47.56h-40.76Z"/>
        <path class="cls-2" d="M154.53,164.96c-20.37,0-35.16-14.79-35.16-35.16V62.37l-16.98.16V15.83h70.64v101.57h22.26v47.56h-40.76Z"/>
        <path class="cls-2" d="M205.32,166.77c-35.72,0-57.91-21.94-57.91-57.25V43.2h53.17v62.37c0,12.48,2.5,14.48,10.52,14.48,17.75,0,26.09-15.84,26.18-19.93v-56.92h53.5v121.76h-53.5v-5.81c-9.17,5.04-19.89,7.62-31.95,7.62Z"/>
        <path class="cls-2" d="M322.22,167.27c-23.17,0-41.16-4.96-53.47-14.75-10.37-8.24-16.31-19.83-16.31-31.79v-14.38h13.59c-5.65-7.52-6.83-15.81-6.83-21.4,0-14.26,7.31-26.27,20.59-33.82,11.2-6.36,26.64-9.59,45.89-9.59,41.42,0,67.15,18.46,67.15,48.18v14.38h-6.29c5.05,7.07,6.12,14.71,6.12,19.92,0,13-6.86,43.24-70.44,43.24Z"/>
        <path class="cls-2" d="M416.37,164.96c-34.58,0-56.92-21.31-56.92-54.28,0-7.62,1.11-14.57,3.23-20.74h-16.28l-.43-46.57h26.02v-18.9l51.63-12.35-.19,31.24h32.07v46.57h-39.77c-1.24,0-4.19.11-4.84,1.08-.62.93-2.05,4.1-2.05,13.4,0,13.32,2.37,13.32,8.7,13.32h37.8v47.23h-38.95Z"/>
        <path class="cls-2" d="M417.15,165.13V43.37h53.5v6.06c9.31-5.24,20.15-7.88,32.45-7.88,17.71,0,32.25,5.41,42.05,15.64,10.13,10.57,14.85,25.56,14.04,44.54l-.59,13.67-51.25.37v-14.48c0-8.01-1.41-10.15-1.69-10.5-.3-.37-2.18-1.34-7.18-1.34-20.58,0-27.83,16.4-27.83,19.92v55.77h-53.5Z"/>
        <path class="cls-2" d="M563.77,166.61c-31.04,0-54.45-19.51-54.45-45.38,0-13.1,5.85-23.94,15.99-31.29h-5.64l-.43-46.57h71.57c39.63,0,59.73,19.43,59.73,57.75v16.78h16.32v47.23h-57.78v-3.33c-2.6-1.64-4.92-3.87-6.73-6.62-10.91,7.4-24.13,11.44-38.58,11.44ZM563.71,121.68c1.61.89,4.8,1.99,9.46,1.99,3.11,0,5.84-.54,8.21-1.38-3.49-1.1-7.03-1.85-10.19-1.85-2.99,0-5.8.6-7.48,1.24Z"/>
        <path class="cls-2" d="M684.8,164.96c-34.58,0-56.92-21.31-56.92-54.28,0-7.62,1.11-14.57,3.23-20.74h-16.28l-.43-46.57h26.02v-18.9l51.63-12.35-.19,31.24h32.07v46.57h-39.77c-1.24,0-4.19.11-4.84,1.08-.62.93-2.05,4.1-2.05,13.4,0,13.32,2.37,13.32,8.7,13.32h37.8v47.23h-38.95Z"/>
        <path class="cls-2" d="M675.03,164.96v-47.23h28.2v-27.8h-28.2v-46.57h27.19c-2.32-4.19-3.61-9.1-3.61-14.48,0-16.74,12.64-28.89,30.05-28.89s30.05,12.15,30.05,28.89c0,9.53-4.05,17.58-10.72,22.77,5.62,5.49,8.74,13.49,8.74,23.4v42.67h27.87v47.23h-109.56Z"/>
        <path class="cls-2" d="M806.81,167.6c-42.42,0-74.4-27.02-74.4-62.86,0-19.28,9.09-36.35,25.59-48.06,13.54-9.61,31.63-15.12,49.63-15.12s34.97,5.23,48.02,14.73c15.84,11.54,24.57,28.75,24.57,48.46s-8.37,35.62-23.56,47.18c-13.28,10.11-30.98,15.68-49.85,15.68ZM806.98,84.49c-8.54,0-21.24,5.3-21.24,19.92,0,12.5,8.53,21.24,20.74,21.24s20.25-8.53,20.25-21.24c0-4.67-1.42-19.92-19.75-19.92Z"/>
        <path class="cls-2" d="M931.1,165.13v-61.21c0-13.83-3.55-14.48-10.35-14.48-17.38,0-25.19,15.83-25.19,19.92v55.77h-53.49V43.37h53.49v5.98c9.35-5.22,20.29-7.79,32.94-7.79,35.44,0,55.77,20.87,55.77,57.25v66.32h-53.17Z"/>
      </g>
      <g>
        <path class="cls-1" d="M14.38,132.11h28.2v-56.56H14.38v-17.81h35.62c13.19,0,17.31,7.42,17.31,17.31v57.05h27.87v18.47H14.38v-18.47ZM53.63,14.38c9.4,0,15.66,5.77,15.66,14.51s-6.27,14.68-15.66,14.68-15.66-5.94-15.66-14.68,6.27-14.51,15.66-14.51Z"/>
        <path class="cls-1" d="M90.89,47.85l-16.98.16v-17.81h41.88v101.57h22.26v18.8h-26.38c-12.53,0-20.78-8.41-20.78-20.78V47.85Z"/>
        <path class="cls-1" d="M133.76,47.85l-16.98.16v-17.81h41.88v101.57h22.26v18.8h-26.38c-12.53,0-20.78-8.41-20.78-20.78V47.85Z"/>
        <path class="cls-1" d="M161.79,109.52v-51.94h24.4v47.98c0,11.05,1.81,28.86,24.9,28.86,25.89,0,40.56-22.75,40.56-34.3v-42.54h24.73v93h-24.73v-15l3.46-10.06h-5.44c-9.07,18.14-24.24,26.88-44.36,26.88s-43.53-9.07-43.53-42.87Z"/>
        <path class="cls-1" d="M378.28,124.03c0,18.63-20.28,28.86-56.06,28.86-44.85,0-55.4-20.28-55.4-32.15h23.74c.99,11.87,16.49,16.98,32.48,16.98,24.9,0,33.64-4.12,33.64-13.69,0-24.07-83.11,1.32-83.11-39.08,0-18.14,18.14-29.02,52.11-29.02,28.53,0,52.77,9.56,52.77,33.8h-22.43c-1.32-13.03-12.53-18.47-30.34-18.47s-28.53,3.63-28.53,14.68c0,23.74,81.13-.16,81.13,38.09Z"/>
        <path class="cls-1" d="M408.95,57.75h32.15v17.81h-25.39c-16.49,0-21.27,10.39-21.27,28.86,0,16.65,4.78,27.7,23.08,27.7h23.41v18.47h-24.57c-27.37,0-42.54-15.17-42.54-39.9,0-18.47,7.75-33.14,26.71-36.44v-5.44l-17.64,6.76h-22.26l-.16-17.81h25.89v-21.93l22.76-5.44-.16,27.37Z"/>
        <path class="cls-1" d="M544.81,101.11l-23.09.16c0-17.15-5.28-26.22-23.25-26.22-28.53,0-42.21,22.75-42.21,34.3v41.39h-24.73V57.75h24.73v15l-3.63,10.06h5.61c10.55-19.46,25.56-26.88,44.85-26.88,22.92,0,43.2,10.55,41.72,45.18Z"/>
        <path class="cls-1" d="M562.29,93.86c21.6,0,37.93,9.73,49.14,17.15.17-2.97,0-9.56,0-12.2,0-16.49-8.08-23.25-29.35-23.25h-48.15l-.16-17.81h57.05c31.33,0,45.34,13.03,45.34,43.37v31.16h16.32v18.47h-29.02v-.16l-3.13.16c-5.28,0-7.58-5.77-7.58-9.56,0-5.28,3.13-15.01,4.78-17.48l-4.95-2.64c-11.05,24.73-33.31,31.16-48.81,31.16-20.28,0-40.07-11.21-40.07-31s18.47-27.37,38.58-27.37ZM573.17,138.05c23.58,0,33.64-19.62,33.64-19.62,0,0-18.96-12.37-35.62-12.37-7.09,0-22.75,2.31-22.75,15.5,0,10.88,12.2,16.49,24.73,16.49Z"/>
        <path class="cls-1" d="M677.38,57.75h32.15v17.81h-25.39c-16.49,0-21.27,10.39-21.27,28.86,0,16.65,4.78,27.7,23.08,27.7h23.41v18.47h-24.57c-27.37,0-42.54-15.17-42.54-39.9,0-18.47,7.75-33.14,26.71-36.44v-5.44l-17.64,6.76h-22.26l-.16-17.81h25.89v-21.93l22.75-5.44-.16,27.37Z"/>
        <path class="cls-1" d="M689.41,132.11h28.2v-56.56h-28.2v-17.81h35.62c13.19,0,17.31,7.42,17.31,17.31v57.05h27.87v18.47h-80.8v-18.47ZM728.66,14.38c9.4,0,15.66,5.77,15.66,14.51s-6.27,14.68-15.66,14.68-15.66-5.94-15.66-14.68,6.27-14.51,15.66-14.51Z"/>
        <path class="cls-1" d="M865.84,104.74c0,30.67-28.03,48.48-59.03,48.48s-60.02-18.47-60.02-48.48c0-31.82,31.82-48.81,60.84-48.81s58.21,15.66,58.21,48.81ZM806.48,140.03c20.45,0,34.63-15.34,34.63-35.62,0-18.8-12.37-34.3-34.13-34.3-23.74,0-35.62,18.3-35.62,34.3,0,20.12,14.51,35.62,35.12,35.62Z"/>
        <path class="cls-1" d="M969.89,98.81v51.94h-24.4v-46.83c0-11.05-1.81-28.86-24.73-28.86-25.89,0-39.57,22.75-39.57,34.3v41.39h-24.73V57.75h24.73v15l-3.63,10.06h5.61c10.55-19.46,25.56-26.88,45.34-26.88,21.6,0,41.39,9.07,41.39,42.87Z"/>
      </g>
    </g>
  </g>
</svg>