<?xml version="1.0" encoding="UTF-8"?>
<svg id="_圖層_2" data-name="圖層 2" xmlns="http://www.w3.org/2000/svg" viewBox="0 0 1911.52 345.3">
  <defs>
    <style>
      .cls-1 {
        fill: #140305;
      }

      .cls-2 {
        fill: #dbdcdc;
      }

      .cls-3 {
        fill: none;
        stroke: #231815;
      }
    </style>
  </defs>
  <g id="_圖層_1-2" data-name="圖層 1">
    <g>
      <g>
        <path class="cls-2" d="M88.39,277.12c-34.94,0-60.3-25.36-60.3-60.3v-109.33l-28.09.27V26.18h121.15v167.98h36.81v82.97h-69.57Z"/>
        <path class="cls-2" d="M58.53,277.12v-82.42h46.63v-41.65h-46.63v-81.33h43.59c-2.97-6.49-4.6-13.84-4.6-21.78C97.53,21,119.33,0,149.38,0s51.85,21,51.85,49.94c0,15.55-6.23,28.82-16.62,37.81,8.6,9.37,13.35,22.51,13.35,38.54v68.41h46.08v82.42H58.53Z"/>
        <path class="cls-2" d="M412.86,277.12v-101.48c0-23.14-4.91-23.14-14.69-23.14-14.29,0-20.68,11.76-20.68,23.42v101.2h-92.25v-101.75c0-23.42-5.73-23.42-15.23-23.42-16.15,0-21.23,13.79-21.23,17.69v107.48h-92.79V71.99h92.79v4.18c11.17-4.9,23.35-7.45,36.23-7.45,24.57,0,45.03,9.49,59.45,26.91,17.15-17.11,39.98-26.91,64.89-26.91,59.06,0,95.75,38.46,95.75,100.38v108.02h-92.24Z"/>
        <path class="cls-2" d="M449.14,277.12v-82.42h46.63v-41.65h-46.63v-81.33h43.59c-2.97-6.49-4.6-13.84-4.6-21.78,0-28.94,21.81-49.94,51.85-49.94s51.85,21,51.85,49.94c0,15.55-6.23,28.83-16.62,37.82,8.6,9.36,13.35,22.51,13.35,38.54v68.41h46.09v82.42h-185.5Z"/>
        <path class="cls-2" d="M692.5,277.4v-103.38c0-21.78-5-21.78-14.96-21.78-28.1,0-39.35,25.58-39.5,30.8v94.36h-92.79V71.72h92.79v8.41c15.03-7.64,32.42-11.41,52.32-11.41,59.99,0,94.39,35.3,94.39,96.84v111.84h-92.25Z"/>
        <path class="cls-2" d="M832.03,279.85c-52.57,0-92.21-33.19-92.21-77.2,0-20.19,8.11-37.24,22.36-49.6h-81.49l-.75-81.33h196.82c46.04,0,100.93,16.94,100.93,97.66v25.6h27v82.42h-99.88v-6.31c-3.7-2.55-6.87-5.75-9.46-9.38-18.06,11.75-39.7,18.14-63.31,18.14ZM839.81,203.78c2.19.44,4.79.73,7.76.73,1.53,0,3-.08,4.41-.24-2.65-.49-5.24-.77-7.68-.77-1.54,0-3.05.11-4.49.28Z"/>
        <path class="cls-2" d="M910.98,277.12v-82.97h36.81V26.18h121.15v81.59l-28.09-.27v109.33c0,34.94-25.36,60.3-60.3,60.3h-69.57Z"/>
        <path class="cls-2" d="M1067.13,280.94c-114.27,0-117.57-71.02-117.57-79.11v-25.94h19.9c-5.47-8.68-8.71-19.56-8.71-33.24,0-17.34,8.08-73.93,112.11-73.93,69.83,0,113.2,31.36,113.2,81.84v25.94h-8c4.87,8.17,7.73,18.26,7.73,30.78,0,22.15-11.56,73.66-118.66,73.66Z"/>
        <path class="cls-2" d="M1130.07,345.3v-82.15h22.31c-6.28-5.49-11.3-12.64-15.12-21.5l-80.28-169.93h100.75l41.48,91.39,38.9-91.39h97.38l-76.45,181.88,36.76,91.7h-165.73Z"/>
        <path class="cls-2" d="M1376.65,277.4v-103.38c0-21.78-5-21.78-14.96-21.78-28.1,0-39.36,25.58-39.5,30.8v94.36h-92.79V71.72h92.79v8.41c15.03-7.64,32.42-11.41,52.32-11.41,59.99,0,94.39,35.3,94.39,96.84v111.84h-92.25Z"/>
        <path class="cls-2" d="M1523.95,277.12c-58.5,0-96.3-36.08-96.3-91.93,0-11.68,1.54-22.45,4.5-32.14h-7.08l-146.78-81.33h170.08v-30.8l89.72-21.46-.32,52.25h53.02v81.33h-67.94c-4.56,0-6.2.8-6.31.86.06.01-2.92,4-2.92,20.92,0,19.87,2.35,19.87,12.23,19.87h64.66v82.42h-66.57Z"/>
        <path class="cls-2" d="M1674.58,277.4v-103.38c0-21.78-5.09-21.78-15.23-21.78-29.18,0-41.87,25.67-42.23,30.92v94.25s-92.79,0-92.79,0V26.18h92.79v53.48c14.54-7.37,31.31-10.94,50.68-10.94,62.01,0,99.02,36.2,99.02,96.84v111.84h-92.25Z"/>
        <path class="cls-2" d="M1792.59,280.94c-114.26,0-117.57-71.02-117.57-79.11v-25.94h19.89c-5.47-8.68-8.71-19.56-8.71-33.24,0-17.34,8.09-73.93,112.11-73.93,69.83,0,113.2,31.36,113.2,81.84v25.94h-8c4.87,8.17,7.73,18.26,7.73,30.78,0,22.15-11.56,73.66-118.66,73.66Z"/>
      </g>
      <g>
        <path class="cls-1" d="M54.03,81.3l-28.09.27v-29.45h69.26v167.98h36.81v31.08h-43.63c-20.72,0-34.36-13.91-34.36-34.36V81.3Z"/>
        <path class="cls-1" d="M84.48,220.64h46.63v-93.53h-46.63v-29.45h58.9c21.81,0,28.63,12.27,28.63,28.63v94.35h46.08v30.54H84.48v-30.54ZM149.38,25.94c15.54,0,25.91,9.54,25.91,24s-10.36,24.27-25.91,24.27-25.9-9.82-25.9-24.27,10.36-24,25.9-24Z"/>
        <path class="cls-1" d="M222.84,97.93v20.18l-9.54,22.63h7.63c14.73-32.45,38.45-46.08,64.08-46.08,22.91,0,43.63,11.45,52.63,44.18h8.73c11.45-27.54,35.18-44.18,62.99-44.18,41.45,0,69.81,24,69.81,74.44v82.08h-40.36v-75.53c0-30.81-10.36-49.08-40.63-49.08-27,0-46.63,21.27-46.63,49.36v75.26h-40.36v-75.81c0-30.81-10.91-49.36-41.18-49.36s-47.17,25.09-47.17,43.63v81.53h-40.9V97.93h40.9Z"/>
        <path class="cls-1" d="M475.08,220.64h46.63v-93.53h-46.63v-29.45h58.9c21.81,0,28.63,12.27,28.63,28.63v94.35h46.08v30.54h-133.62v-30.54ZM539.98,25.94c15.54,0,25.91,9.54,25.91,24s-10.36,24.27-25.91,24.27-25.91-9.82-25.91-24.27,10.36-24,25.91-24Z"/>
        <path class="cls-1" d="M758.81,165.56v85.9h-40.36v-77.44c0-18.27-3-47.72-40.9-47.72-42.81,0-65.44,37.63-65.44,56.72v68.44h-40.9V97.66h40.9v24.82l-6,16.63h9.27c17.45-32.18,42.27-44.45,74.99-44.45,35.72,0,68.44,15,68.44,70.9Z"/>
        <path class="cls-1" d="M829.58,157.38c35.72,0,62.72,16.09,81.26,28.36.27-4.91,0-15.82,0-20.18,0-27.27-13.36-38.45-48.54-38.45h-155.91l-.27-29.45h170.63c51.81,0,74.99,21.54,74.99,71.72v51.54h27v30.54h-47.99v-.27l-5.18.27c-8.73,0-12.54-9.54-12.54-15.82,0-8.73,5.18-24.81,7.91-28.9l-8.18-4.36c-18.27,40.9-55.08,51.54-80.72,51.54-33.54,0-66.26-18.54-66.26-51.26s30.54-45.27,63.81-45.27ZM847.57,230.46c38.99,0,55.63-32.45,55.63-32.45,0,0-31.36-20.45-58.9-20.45-11.73,0-37.63,3.82-37.63,25.63,0,18,20.18,27.27,40.9,27.27Z"/>
        <path class="cls-1" d="M1014.91,216.82c0,20.45-13.63,34.36-34.36,34.36h-43.63v-31.08h36.81s0-167.98,0-167.98h69.26v29.45s-28.09-.27-28.09-.27v135.52Z"/>
        <path class="cls-1" d="M1159.85,207.28c0,30.81-33.54,47.72-92.71,47.72-74.17,0-91.62-33.54-91.62-53.17h39.27c1.63,19.63,27.27,28.09,53.72,28.09,41.17,0,55.63-6.82,55.63-22.63,0-39.81-137.43,2.18-137.43-64.63,0-29.99,29.99-47.99,86.17-47.99,47.18,0,87.26,15.82,87.26,55.9h-37.09c-2.18-21.54-20.72-30.54-50.17-30.54s-47.18,6-47.18,24.27c0,39.27,134.16-.27,134.16,62.99Z"/>
        <path class="cls-1" d="M1296.44,97.66l-65.45,155.7,26.45,65.99h-101.44v-30.27h49.63l-14.45-38.18c-15-.82-24.27-5.73-30.27-19.91l-62.99-133.34h43.08l53.72,118.35-5.73,15.54h9.27l56.99-133.89h41.18Z"/>
        <path class="cls-1" d="M1442.95,165.56v85.9h-40.36v-77.44c0-18.27-3-47.72-40.9-47.72-42.81,0-65.45,37.63-65.45,56.72v68.44h-40.9V97.66h40.9v24.82l-6,16.63h9.27c17.45-32.18,42.27-44.45,74.99-44.45,35.72,0,68.44,15,68.44,70.9Z"/>
        <path class="cls-1" d="M1511.68,97.66h53.17v29.45h-41.99c-27.27,0-35.18,17.18-35.18,47.72,0,27.54,7.91,45.81,38.18,45.81h38.72v30.54h-40.63c-45.27,0-70.35-25.09-70.35-65.99,0-30.54,12.81-54.81,44.17-60.26v-9l-29.18,11.18h-36.81l-53.14-29.45h95.68v-36.27l37.63-9-.27,45.27Z"/>
        <path class="cls-1" d="M1740.88,165.56v85.9h-40.36v-77.44c0-18.27-3-47.72-41.17-47.72-43.36,0-68.17,37.63-68.17,56.72v68.44h-40.9V52.12h40.9v70.35l-6,16.63h9.27c18-33,41.18-44.45,73.35-44.45,34.9,0,73.08,13.36,73.08,70.9Z"/>
        <path class="cls-1" d="M1885.3,207.28c0,30.81-33.54,47.72-92.71,47.72-74.17,0-91.62-33.54-91.62-53.17h39.27c1.64,19.63,27.27,28.09,53.72,28.09,41.18,0,55.63-6.82,55.63-22.63,0-39.81-137.43,2.18-137.43-64.63,0-29.99,29.99-47.99,86.17-47.99,47.17,0,87.26,15.82,87.26,55.9h-37.09c-2.18-21.54-20.72-30.54-50.17-30.54s-47.18,6-47.18,24.27c0,39.27,134.16-.27,134.16,62.99Z"/>
      </g>
      <g>
        <path class="cls-3" d="M54.03,81.3l-28.09.27v-29.45h69.26v167.98h36.81v31.08h-43.63c-20.72,0-34.36-13.91-34.36-34.36V81.3Z"/>
        <path class="cls-3" d="M84.48,220.64h46.63v-93.53h-46.63v-29.45h58.9c21.81,0,28.63,12.27,28.63,28.63v94.35h46.08v30.54H84.48v-30.54ZM149.38,25.94c15.54,0,25.91,9.54,25.91,24s-10.36,24.27-25.91,24.27-25.9-9.82-25.9-24.27,10.36-24,25.9-24Z"/>
        <path class="cls-3" d="M222.84,97.93v20.18l-9.54,22.63h7.63c14.73-32.45,38.45-46.08,64.08-46.08,22.91,0,43.63,11.45,52.63,44.18h8.73c11.45-27.54,35.18-44.18,62.99-44.18,41.45,0,69.81,24,69.81,74.44v82.08h-40.36v-75.53c0-30.81-10.36-49.08-40.63-49.08-27,0-46.63,21.27-46.63,49.36v75.26h-40.36v-75.81c0-30.81-10.91-49.36-41.18-49.36s-47.17,25.09-47.17,43.63v81.53h-40.9V97.93h40.9Z"/>
        <path class="cls-3" d="M475.08,220.64h46.63v-93.53h-46.63v-29.45h58.9c21.81,0,28.63,12.27,28.63,28.63v94.35h46.08v30.54h-133.62v-30.54ZM539.98,25.94c15.54,0,25.91,9.54,25.91,24s-10.36,24.27-25.91,24.27-25.91-9.82-25.91-24.27,10.36-24,25.91-24Z"/>
        <path class="cls-3" d="M758.81,165.56v85.9h-40.36v-77.44c0-18.27-3-47.72-40.9-47.72-42.81,0-65.44,37.63-65.44,56.72v68.44h-40.9V97.66h40.9v24.82l-6,16.63h9.27c17.45-32.18,42.27-44.45,74.99-44.45,35.72,0,68.44,15,68.44,70.9Z"/>
        <path class="cls-3" d="M829.58,157.38c35.72,0,62.72,16.09,81.26,28.36.27-4.91,0-15.82,0-20.18,0-27.27-13.36-38.45-48.54-38.45h-155.91l-.27-29.45h170.63c51.81,0,74.99,21.54,74.99,71.72v51.54h27v30.54h-47.99v-.27l-5.18.27c-8.73,0-12.54-9.54-12.54-15.82,0-8.73,5.18-24.81,7.91-28.9l-8.18-4.36c-18.27,40.9-55.08,51.54-80.72,51.54-33.54,0-66.26-18.54-66.26-51.26s30.54-45.27,63.81-45.27ZM847.57,230.46c38.99,0,55.63-32.45,55.63-32.45,0,0-31.36-20.45-58.9-20.45-11.73,0-37.63,3.82-37.63,25.63,0,18,20.18,27.27,40.9,27.27Z"/>
        <path class="cls-3" d="M1014.91,216.82c0,20.45-13.63,34.36-34.36,34.36h-43.63v-31.08h36.81s0-167.98,0-167.98h69.26v29.45s-28.09-.27-28.09-.27v135.52Z"/>
        <path class="cls-3" d="M1159.85,207.28c0,30.81-33.54,47.72-92.71,47.72-74.17,0-91.62-33.54-91.62-53.17h39.27c1.63,19.63,27.27,28.09,53.72,28.09,41.17,0,55.63-6.82,55.63-22.63,0-39.81-137.43,2.18-137.43-64.63,0-29.99,29.99-47.99,86.17-47.99,47.18,0,87.26,15.82,87.26,55.9h-37.09c-2.18-21.54-20.72-30.54-50.17-30.54s-47.18,6-47.18,24.27c0,39.27,134.16-.27,134.16,62.99Z"/>
        <path class="cls-3" d="M1296.44,97.66l-65.45,155.7,26.45,65.99h-101.44v-30.27h49.63l-14.45-38.18c-15-.82-24.27-5.73-30.27-19.91l-62.99-133.34h43.08l53.72,118.35-5.73,15.54h9.27l56.99-133.89h41.18Z"/>
        <path class="cls-3" d="M1442.95,165.56v85.9h-40.36v-77.44c0-18.27-3-47.72-40.9-47.72-42.81,0-65.45,37.63-65.45,56.72v68.44h-40.9V97.66h40.9v24.82l-6,16.63h9.27c17.45-32.18,42.27-44.45,74.99-44.45,35.72,0,68.44,15,68.44,70.9Z"/>
        <path class="cls-3" d="M1511.68,97.66h53.17v29.45h-41.99c-27.27,0-35.18,17.18-35.18,47.72,0,27.54,7.91,45.81,38.18,45.81h38.72v30.54h-40.63c-45.27,0-70.35-25.09-70.35-65.99,0-30.54,12.81-54.81,44.17-60.26v-9l-29.18,11.18h-36.81l-53.14-29.45h95.68v-36.27l37.63-9-.27,45.27Z"/>
        <path class="cls-3" d="M1740.88,165.56v85.9h-40.36v-77.44c0-18.27-3-47.72-41.17-47.72-43.36,0-68.17,37.63-68.17,56.72v68.44h-40.9V52.12h40.9v70.35l-6,16.63h9.27c18-33,41.18-44.45,73.35-44.45,34.9,0,73.08,13.36,73.08,70.9Z"/>
        <path class="cls-3" d="M1885.3,207.28c0,30.81-33.54,47.72-92.71,47.72-74.17,0-91.62-33.54-91.62-53.17h39.27c1.64,19.63,27.27,28.09,53.72,28.09,41.18,0,55.63-6.82,55.63-22.63,0-39.81-137.43,2.18-137.43-64.63,0-29.99,29.99-47.99,86.17-47.99,47.17,0,87.26,15.82,87.26,55.9h-37.09c-2.18-21.54-20.72-30.54-50.17-30.54s-47.18,6-47.18,24.27c0,39.27,134.16-.27,134.16,62.99Z"/>
      </g>
      <g>
        <path class="cls-3" d="M54.03,81.3l-28.09.27v-29.45h69.26v167.98h36.81v31.08h-43.63c-20.72,0-34.36-13.91-34.36-34.36V81.3Z"/>
        <path class="cls-3" d="M84.48,220.64h46.63v-93.53h-46.63v-29.45h58.9c21.81,0,28.63,12.27,28.63,28.63v94.35h46.08v30.54H84.48v-30.54ZM149.38,25.94c15.54,0,25.91,9.54,25.91,24s-10.36,24.27-25.91,24.27-25.9-9.82-25.9-24.27,10.36-24,25.9-24Z"/>
        <path class="cls-3" d="M222.84,97.93v20.18l-9.54,22.63h7.63c14.73-32.45,38.45-46.08,64.08-46.08,22.91,0,43.63,11.45,52.63,44.18h8.73c11.45-27.54,35.18-44.18,62.99-44.18,41.45,0,69.81,24,69.81,74.44v82.08h-40.36v-75.53c0-30.81-10.36-49.08-40.63-49.08-27,0-46.63,21.27-46.63,49.36v75.26h-40.36v-75.81c0-30.81-10.91-49.36-41.18-49.36s-47.17,25.09-47.17,43.63v81.53h-40.9V97.93h40.9Z"/>
        <path class="cls-3" d="M475.08,220.64h46.63v-93.53h-46.63v-29.45h58.9c21.81,0,28.63,12.27,28.63,28.63v94.35h46.08v30.54h-133.62v-30.54ZM539.98,25.94c15.54,0,25.91,9.54,25.91,24s-10.36,24.27-25.91,24.27-25.91-9.82-25.91-24.27,10.36-24,25.91-24Z"/>
        <path class="cls-3" d="M758.81,165.56v85.9h-40.36v-77.44c0-18.27-3-47.72-40.9-47.72-42.81,0-65.44,37.63-65.44,56.72v68.44h-40.9V97.66h40.9v24.82l-6,16.63h9.27c17.45-32.18,42.27-44.45,74.99-44.45,35.72,0,68.44,15,68.44,70.9Z"/>
        <path class="cls-3" d="M829.58,157.38c35.72,0,62.72,16.09,81.26,28.36.27-4.91,0-15.82,0-20.18,0-27.27-13.36-38.45-48.54-38.45h-155.91l-.27-29.45h170.63c51.81,0,74.99,21.54,74.99,71.72v51.54h27v30.54h-47.99v-.27l-5.18.27c-8.73,0-12.54-9.54-12.54-15.82,0-8.73,5.18-24.81,7.91-28.9l-8.18-4.36c-18.27,40.9-55.08,51.54-80.72,51.54-33.54,0-66.26-18.54-66.26-51.26s30.54-45.27,63.81-45.27ZM847.57,230.46c38.99,0,55.63-32.45,55.63-32.45,0,0-31.36-20.45-58.9-20.45-11.73,0-37.63,3.82-37.63,25.63,0,18,20.18,27.27,40.9,27.27Z"/>
        <path class="cls-3" d="M1014.91,216.82c0,20.45-13.63,34.36-34.36,34.36h-43.63v-31.08h36.81s0-167.98,0-167.98h69.26v29.45s-28.09-.27-28.09-.27v135.52Z"/>
        <path class="cls-3" d="M1159.85,207.28c0,30.81-33.54,47.72-92.71,47.72-74.17,0-91.62-33.54-91.62-53.17h39.27c1.63,19.63,27.27,28.09,53.72,28.09,41.17,0,55.63-6.82,55.63-22.63,0-39.81-137.43,2.18-137.43-64.63,0-29.99,29.99-47.99,86.17-47.99,47.18,0,87.26,15.82,87.26,55.9h-37.09c-2.18-21.54-20.72-30.54-50.17-30.54s-47.18,6-47.18,24.27c0,39.27,134.16-.27,134.16,62.99Z"/>
        <path class="cls-3" d="M1296.44,97.66l-65.45,155.7,26.45,65.99h-101.44v-30.27h49.63l-14.45-38.18c-15-.82-24.27-5.73-30.27-19.91l-62.99-133.34h43.08l53.72,118.35-5.73,15.54h9.27l56.99-133.89h41.18Z"/>
        <path class="cls-3" d="M1442.95,165.56v85.9h-40.36v-77.44c0-18.27-3-47.72-40.9-47.72-42.81,0-65.45,37.63-65.45,56.72v68.44h-40.9V97.66h40.9v24.82l-6,16.63h9.27c17.45-32.18,42.27-44.45,74.99-44.45,35.72,0,68.44,15,68.44,70.9Z"/>
        <path class="cls-3" d="M1511.68,97.66h53.17v29.45h-41.99c-27.27,0-35.18,17.18-35.18,47.72,0,27.54,7.91,45.81,38.18,45.81h38.72v30.54h-40.63c-45.27,0-70.35-25.09-70.35-65.99,0-30.54,12.81-54.81,44.17-60.26v-9l-29.18,11.18h-36.81l-53.14-29.45h95.68v-36.27l37.63-9-.27,45.27Z"/>
        <path class="cls-3" d="M1740.88,165.56v85.9h-40.36v-77.44c0-18.27-3-47.72-41.17-47.72-43.36,0-68.17,37.63-68.17,56.72v68.44h-40.9V52.12h40.9v70.35l-6,16.63h9.27c18-33,41.18-44.45,73.35-44.45,34.9,0,73.08,13.36,73.08,70.9Z"/>
        <path class="cls-3" d="M1885.3,207.28c0,30.81-33.54,47.72-92.71,47.72-74.17,0-91.62-33.54-91.62-53.17h39.27c1.64,19.63,27.27,28.09,53.72,28.09,41.18,0,55.63-6.82,55.63-22.63,0-39.81-137.43,2.18-137.43-64.63,0-29.99,29.99-47.99,86.17-47.99,47.17,0,87.26,15.82,87.26,55.9h-37.09c-2.18-21.54-20.72-30.54-50.17-30.54s-47.18,6-47.18,24.27c0,39.27,134.16-.27,134.16,62.99Z"/>
      </g>
    </g>
  </g>
</svg>