<?xml version="1.0" encoding="UTF-8"?>
<svg id="_圖層_2" data-name="圖層 2" xmlns="http://www.w3.org/2000/svg" viewBox="0 0 1121.22 206.35">
  <defs>
    <style>
      .cls-1 {
        fill: #140305;
      }

      .cls-2 {
        fill: #dbdcdc;
      }
    </style>
  </defs>
  <g id="_圖層_1-2" data-name="圖層 1">
    <g>
      <g>
        <path class="cls-2" d="M70.41,164.96c-34.58,0-56.92-21.31-56.92-54.28,0-7.61,1.11-14.57,3.23-20.74H.43l-.43-46.57h26.02v-18.9l51.63-12.35-.19,31.24h32.07v46.57h-39.77c-1.24,0-4.19.11-4.84,1.08-.62.93-2.05,4.1-2.05,13.4,0,13.32,2.37,13.32,8.7,13.32h37.8v47.23h-38.95Z"/>
        <path class="cls-2" d="M94.61,206.18v-47.06h16.07c-5.11-3.4-9.03-8.33-11.84-14.84L51.17,43.37h58.02l25.97,57.2,24.35-57.2h56.05l-45.67,108.66,21.71,54.15h-96.98Z"/>
        <path class="cls-2" d="M165.84,206.18V43.37h53.5v5.72c10.32-4.55,21.99-7.2,33.44-7.2,37.59,0,63.85,25.58,63.85,62.2,0,19.28-7.03,35.54-20.34,47.02-11.59,10-27.28,15.51-44.16,15.51-11.73,0-22.92-2.78-32.78-7.87v47.44h-53.5ZM243.38,84.99c-7.18,0-23.87,1.62-23.87,16.62,0,11.7,9.63,19.26,24.53,19.26,13.56,0,19.09-5.29,19.09-18.27,0-14.66-7.56-17.61-19.75-17.61Z"/>
        <path class="cls-2" d="M348.24,167.6c-42.42,0-74.4-27.02-74.4-62.86,0-19.28,9.09-36.35,25.59-48.06,13.54-9.61,31.63-15.12,49.63-15.12s34.97,5.23,48.02,14.73c15.84,11.54,24.57,28.75,24.57,48.46s-8.37,35.62-23.56,47.18c-13.28,10.11-30.98,15.68-49.85,15.68ZM348.41,84.49c-8.54,0-21.24,5.3-21.24,19.92,0,12.5,8.53,21.24,20.74,21.24s20.25-8.53,20.25-21.24c0-4.67-1.42-19.92-19.75-19.92Z"/>
        <path class="cls-2" d="M426.02,206.18c-15.67,0-27.58-2.8-36.37-8.56-7.63-5-16.72-14.82-16.72-33.2,0-10.77,3.64-33.76,33.54-40.21-13.61-6.8-21.7-19.75-21.83-36.68,0-27.71,19.55-44.18,52.3-44.18h5.9c0-.36,0-.72,0-1.09.07-14.76,11.43-25.46,27.08-25.46h68.93l-.43,46.73h-19.76c6.65,8.66,7.95,18.68,8.02,24.8.25,12.76-3.38,23.08-10.81,30.67-1.18,1.2-2.42,2.3-3.71,3.31,21.44,7.94,26.91,24.76,27.06,39.48.19,12.58-3.53,22.86-11.05,30.48-9.32,9.46-23.89,14.06-44.55,14.06l-57.59-.17ZM469.7,90.03c2.14,0,3.28-.41,3.62-.6.05-.15.17-.52.19-1.21-.58-.3-1.96-.76-4.29-.76h-.63s-26.44-.33-26.44-.33c-2.65,0-3.79.64-3.95.81-.01.03-.08.25-.08.66,0,.1.02.18.03.25.62.25,1.98.62,4.25.69l27.3.49Z"/>
        <path class="cls-2" d="M496.1,165.13V43.37h53.49v6.06c9.31-5.24,20.15-7.88,32.45-7.88,17.71,0,32.25,5.41,42.05,15.64,10.13,10.57,14.85,25.56,14.04,44.54l-.59,13.67-51.25.37v-14.48c0-8.01-1.41-10.15-1.69-10.5-.3-.37-2.18-1.34-7.18-1.34-20.58,0-27.83,16.4-27.83,19.92v55.77h-53.49Z"/>
        <path class="cls-2" d="M642.72,166.61c-31.04,0-54.45-19.51-54.45-45.38,0-13.1,5.85-23.94,15.99-31.29h-5.64l-.43-46.57h71.57c39.63,0,59.73,19.43,59.73,57.75v16.78h16.32v47.23h-57.78v-3.33c-2.6-1.64-4.92-3.87-6.73-6.62-10.91,7.4-24.13,11.44-38.58,11.44ZM642.67,121.68c1.61.89,4.8,1.99,9.46,1.99,3.11,0,5.84-.54,8.21-1.38-3.49-1.1-7.03-1.85-10.19-1.85-2.99,0-5.8.6-7.48,1.24Z"/>
        <path class="cls-2" d="M702.38,206.18V43.37h53.5v5.71c10.32-4.55,21.99-7.2,33.44-7.2,37.59,0,63.85,25.58,63.85,62.2,0,19.28-7.03,35.54-20.34,47.02-11.59,10-27.28,15.51-44.16,15.51-11.73,0-22.92-2.78-32.78-7.87v47.44h-53.5ZM779.91,84.99c-7.18,0-23.87,1.62-23.87,16.62,0,11.7,9.63,19.26,24.53,19.26,13.56,0,19.09-5.29,19.09-18.27,0-14.66-7.56-17.61-19.75-17.61Z"/>
        <path class="cls-2" d="M907,165.13v-61.21c0-12.48-2.5-14.48-10.52-14.48-18.07,0-26.71,15.85-26.84,19.93v55.75h-53.5V15.83h53.5v33.23c9.05-5.06,19.61-7.51,31.95-7.51,36.68,0,58.57,21.4,58.57,57.25v66.32h-53.17Z"/>
        <path class="cls-2" d="M915.73,164.96v-47.23h28.2v-27.8h-28.2v-46.57h27.19c-2.32-4.19-3.61-9.1-3.61-14.47,0-16.74,12.64-28.89,30.05-28.89s30.05,12.15,30.05,28.89c0,9.53-4.05,17.58-10.72,22.77,5.62,5.49,8.74,13.49,8.74,23.4v42.67h27.87v47.23h-109.56Z"/>
        <path class="cls-2" d="M1044.71,167.44c-18.72,0-36.08-5.48-48.88-15.44-14.65-11.4-22.72-28.18-22.72-47.26s8.68-37.2,24.44-48.65c12.9-9.37,29.94-14.54,47.99-14.54,31.74,0,67.1,16.98,69.75,54.26l.14,1.97h5.79l-2.43,16.48c-2.45,16.61-12.26,31.04-27.64,40.63-12.97,8.09-29.47,12.55-46.44,12.55ZM1044.38,84.66c-4.97,0-20.08,0-20.08,20.08,0,9.2,2.28,19.75,20.08,19.75,11.81,0,21.42-5.67,22.72-13.29h-3.16l-.3-14.08c-.2-9.2-10.08-12.47-19.26-12.47Z"/>
      </g>
      <g>
        <path class="cls-1" d="M62.99,57.75h32.15v17.81h-25.39c-16.49,0-21.27,10.39-21.27,28.86,0,16.65,4.78,27.7,23.08,27.7h23.41v18.47h-24.57c-27.37,0-42.54-15.17-42.54-39.9,0-18.47,7.75-33.14,26.71-36.44v-5.44l-17.64,6.76H14.68l-.16-17.81h25.89v-21.93l22.76-5.44-.17,27.37Z"/>
        <path class="cls-1" d="M193.91,57.75l-39.57,94.15,15.99,39.9h-61.34v-18.3h30.01l-8.74-23.08c-9.07-.5-14.68-3.46-18.3-12.04l-38.09-80.63h26.05l32.48,71.56-3.46,9.4h5.61l34.46-80.96h24.9Z"/>
        <path class="cls-1" d="M202.32,122.05h-5.11l7.75,16.65v53.09h-24.73V57.75h24.73v10.72l-7.42,11.05h5.61c7.91-12.7,28.69-23.25,49.63-23.25,25.89,0,49.47,15.99,49.47,47.82s-24.24,48.15-50.13,48.15c-23.74,0-41.55-13.69-49.8-30.18ZM205.12,101.61c0,17.64,13.52,33.64,38.91,33.64,23.09,0,33.47-13.19,33.47-32.65s-11.05-31.99-34.13-31.99-38.25,12.37-38.25,31Z"/>
        <path class="cls-1" d="M407.27,104.74c0,30.67-28.03,48.48-59.03,48.48s-60.02-18.47-60.02-48.48c0-31.82,31.82-48.81,60.84-48.81s58.21,15.66,58.21,48.81ZM347.91,140.03c20.45,0,34.63-15.34,34.63-35.62,0-18.8-12.37-34.3-34.13-34.3-23.74,0-35.62,18.3-35.62,34.3,0,20.12,14.51,35.62,35.12,35.62Z"/>
        <path class="cls-1" d="M524.17,49.17h-46c-2.14.99-2.97,7.75-2.97,12.04,26.05,0,36.94,10.39,37.1,27.37.49,23.25-15.66,29.68-39.41,29.68h-27.87c-3.3,0-5.44,2.31-6.59,6.27-1.32,4.45-.33,7.42,2.97,7.42l41.06.16c33.97.16,42.21,13.69,42.38,29.85.33,22.43-15.34,30.17-42.05,30.01l-56.72-.16c-24.4,0-38.75-7.42-38.75-27.37s12.86-27.54,36.77-27.54l8.57-21.77c-17.81.49-33.47-7.42-33.64-27.7,0-20.78,15-29.68,37.92-29.68h13.85c5.44,0,10.39,4.45,14.84,7.75l3.3-4.45c-5.28-4.62-11.87-9.23-11.71-18.63,0-6.6,4.45-11.21,12.7-11.21h54.41l-.17,17.97ZM477.18,148.6l-43.37-.33c-13.19-.16-20.12,4.95-19.79,14.51.49,9.07,7.25,13.52,18.47,13.52l46,.33c12.86.16,19.29-4.45,19.29-14.18-.16-9.4-6.26-14.02-20.61-13.85ZM468.77,73.08l-26.22-.33c-12.86-.16-19.13,7.59-18.8,16.49.5,9.07,6.76,14.35,18.3,14.68l27.21.49c12.2.16,18.63-6.6,18.63-16.49,0-8.57-7.09-15.01-19.13-14.84Z"/>
        <path class="cls-1" d="M623.77,101.11l-23.09.16c0-17.15-5.28-26.22-23.25-26.22-28.53,0-42.21,22.75-42.21,34.3v41.39h-24.73V57.75h24.73v15.01l-3.63,10.06h5.61c10.55-19.46,25.56-26.88,44.85-26.88,22.92,0,43.2,10.55,41.72,45.18Z"/>
        <path class="cls-1" d="M641.24,93.86c21.6,0,37.93,9.73,49.14,17.15.17-2.97,0-9.56,0-12.2,0-16.49-8.08-23.25-29.35-23.25h-48.15l-.16-17.81h57.05c31.33,0,45.34,13.03,45.34,43.37v31.16h16.32v18.47h-29.02v-.16l-3.13.16c-5.28,0-7.58-5.77-7.58-9.56,0-5.28,3.13-15.01,4.78-17.48l-4.95-2.64c-11.05,24.73-33.31,31.16-48.81,31.16-20.28,0-40.07-11.21-40.07-31s18.47-27.37,38.58-27.37ZM652.12,138.05c23.58,0,33.64-19.62,33.64-19.62,0,0-18.96-12.37-35.62-12.37-7.09,0-22.75,2.31-22.75,15.5,0,10.88,12.2,16.49,24.73,16.49Z"/>
        <path class="cls-1" d="M738.85,122.05h-5.11l7.75,16.65v53.09h-24.73V57.75h24.73v10.72l-7.42,11.05h5.61c7.91-12.7,28.69-23.25,49.63-23.25,25.89,0,49.47,15.99,49.47,47.82s-24.24,48.15-50.13,48.15c-23.74,0-41.55-13.69-49.8-30.18ZM741.66,101.61c0,17.64,13.52,33.64,38.91,33.64,23.09,0,33.47-13.19,33.47-32.65s-11.05-31.99-34.13-31.99-38.25,12.37-38.25,31Z"/>
        <path class="cls-1" d="M945.78,98.81v51.94h-24.4v-46.83c0-11.05-1.81-28.86-24.9-28.86-26.22,0-41.22,22.75-41.22,34.3v41.39h-24.73V30.21h24.73v42.54l-3.63,10.06h5.61c10.88-19.95,24.9-26.88,44.36-26.88,21.11,0,44.19,8.08,44.19,42.87Z"/>
        <path class="cls-1" d="M930.11,132.11h28.2v-56.56h-28.2v-17.81h35.62c13.19,0,17.31,7.42,17.31,17.31v57.05h27.87v18.47h-80.8v-18.47ZM969.36,14.38c9.4,0,15.66,5.77,15.66,14.51s-6.27,14.68-15.66,14.68-15.66-5.94-15.66-14.68,6.27-14.51,15.66-14.51Z"/>
        <path class="cls-1" d="M1104.57,112.16c-3.96,26.88-32.15,40.89-59.85,40.89-30.5,0-57.22-16.98-57.22-48.31,0-33.64,30.01-48.81,58.04-48.81,26.22,0,53.42,13.03,55.4,40.89h-22.92c-.33-15.5-13.52-26.55-33.64-26.55-24.07,0-34.46,15.99-34.46,34.46,0,23.74,14.84,34.13,34.46,34.13s35.45-11.71,37.1-26.71h23.08Z"/>
      </g>
    </g>
  </g>
</svg>