<?xml version="1.0" encoding="UTF-8"?>
<svg id="_圖層_2" data-name="圖層 2" xmlns="http://www.w3.org/2000/svg" viewBox="0 0 543.2 155.48">
  <defs>
    <style>
      .cls-1 {
        fill: #140305;
      }

      .cls-2 {
        fill: #dbdcdc;
      }
    </style>
  </defs>
  <g id="_圖層_1-2" data-name="圖層 1">
    <g>
      <g>
        <path class="cls-2" d="M54.45,154.49c-31.04,0-54.45-19.51-54.45-45.38,0-13.1,5.85-23.94,15.99-31.29h-5.64l-.43-46.57h71.57c39.63,0,59.73,19.43,59.73,57.75v16.78h16.32v47.23h-57.78v-3.33c-2.6-1.64-4.92-3.87-6.73-6.62-10.91,7.4-24.13,11.44-38.58,11.44ZM54.39,109.56c1.61.89,4.8,1.99,9.46,1.99,3.11,0,5.84-.53,8.21-1.38-3.49-1.1-7.03-1.85-10.19-1.85-2.99,0-5.8.6-7.48,1.24Z"/>
        <path class="cls-2" d="M201.03,154.16c-11.84,0-23.26-2.94-33.11-7.52v6.2h-53.5V3.54h53.5v33.41c9.66-4.94,20.55-7.52,32.28-7.52,38.98,0,65.17,24.27,65.17,60.39,0,18.88-7.08,35.78-19.93,47.57-11.79,10.81-27.56,16.77-44.41,16.77ZM192.13,73.69c-15.28,0-24.04,6.48-24.04,17.77s10.02,19.42,24.37,19.42c13.25,0,19.42-6.28,19.42-19.75,0-14.52-7.56-17.44-19.75-17.44Z"/>
        <path class="cls-2" d="M296.83,155.48c-42.42,0-74.4-27.02-74.4-62.86,0-19.28,9.09-36.35,25.6-48.06,13.54-9.61,31.63-15.12,49.63-15.12s34.97,5.23,48.02,14.73c15.84,11.54,24.57,28.75,24.57,48.46s-8.37,35.62-23.56,47.18c-13.28,10.11-30.98,15.68-49.85,15.68ZM296.99,72.37c-8.54,0-21.24,5.3-21.24,19.92,0,12.5,8.53,21.24,20.74,21.24s20.25-8.53,20.25-21.24c0-4.67-1.42-19.92-19.75-19.92Z"/>
        <path class="cls-2" d="M389,154.65c-35.72,0-57.91-21.94-57.91-57.25V31.08h53.17v62.36c0,12.48,2.5,14.48,10.52,14.48,17.75,0,26.09-15.84,26.18-19.93V31.08h53.5v121.76h-53.5v-5.81c-9.17,5.04-19.89,7.62-31.95,7.62Z"/>
        <path class="cls-2" d="M504.09,152.84c-34.58,0-56.92-21.31-56.92-54.28,0-7.61,1.11-14.57,3.23-20.74h-16.28l-.43-46.57h26.02V12.35L511.32,0l-.19,31.24h32.07v46.57h-39.78c-1.24,0-4.19.11-4.84,1.08-.62.93-2.05,4.1-2.05,13.4,0,13.32,2.37,13.32,8.7,13.32h37.79v47.23h-38.95Z"/>
      </g>
      <g>
        <path class="cls-1" d="M52.97,81.74c21.6,0,37.93,9.73,49.14,17.15.16-2.97,0-9.56,0-12.2,0-16.49-8.08-23.25-29.35-23.25H24.6l-.17-17.81h57.05c31.33,0,45.34,13.03,45.34,43.37v31.16h16.32v18.47h-29.02v-.16l-3.13.16c-5.28,0-7.58-5.77-7.58-9.56,0-5.28,3.13-15.01,4.78-17.48l-4.95-2.64c-11.05,24.73-33.31,31.16-48.81,31.16-20.28,0-40.07-11.21-40.07-31s18.47-27.37,38.58-27.37ZM63.85,125.93c23.58,0,33.64-19.62,33.64-19.62,0,0-18.96-12.37-35.62-12.37-7.09,0-22.75,2.31-22.75,15.5,0,10.88,12.2,16.49,24.73,16.49Z"/>
        <path class="cls-1" d="M251,89.81c0,31.99-24.07,49.96-49.96,49.96-22.59,0-43.86-13.69-49.3-24.73h-5.61l7.42,12.37v11.05h-24.73V17.92h24.73v39.41l-7.59,15.17h5.11c10.72-18.14,27.87-28.69,49.14-28.69,26.71,0,50.79,14.18,50.79,46ZM226.26,91.13c0-18.3-9.4-31.82-34.13-31.82-26.05,0-38.42,15.17-38.42,32.15,0,19.13,15.99,33.8,38.75,33.8,21.27,0,33.8-12.86,33.8-34.13Z"/>
        <path class="cls-1" d="M355.86,92.62c0,30.67-28.03,48.48-59.03,48.48s-60.02-18.47-60.02-48.48c0-31.82,31.82-48.81,60.85-48.81s58.21,15.66,58.21,48.81ZM296.5,127.9c20.45,0,34.63-15.33,34.63-35.62,0-18.8-12.37-34.3-34.13-34.3-23.74,0-35.62,18.3-35.62,34.3,0,20.12,14.51,35.62,35.12,35.62Z"/>
        <path class="cls-1" d="M345.47,97.4v-51.94h24.4v47.98c0,11.05,1.81,28.86,24.9,28.86,25.89,0,40.56-22.76,40.56-34.3v-42.54h24.73v93h-24.73v-15.01l3.46-10.06h-5.44c-9.07,18.14-24.24,26.88-44.36,26.88s-43.53-9.07-43.53-42.87Z"/>
        <path class="cls-1" d="M496.67,45.62h32.15v17.81h-25.39c-16.49,0-21.27,10.39-21.27,28.86,0,16.65,4.78,27.7,23.09,27.7h23.41v18.47h-24.57c-27.37,0-42.54-15.17-42.54-39.9,0-18.47,7.75-33.14,26.71-36.44v-5.44l-17.64,6.76h-22.26l-.16-17.81h25.89v-21.93l22.75-5.44-.16,27.37Z"/>
      </g>
    </g>
  </g>
</svg>